<?xml version="1.0" encoding="UTF-8"?>
<svg width="20px" height="19px" viewBox="0 0 20 19" version="1.1" xmlns="http://www.w3.org/2000/svg" xmlns:xlink="http://www.w3.org/1999/xlink">
    <!-- Generator: sketchtool 50.2 (55047) - http://www.bohemiancoding.com/sketch -->
    <title>C4C27E23-98EE-4418-BBB4-A53C59C513D1</title>
    <desc>Created with sketchtool.</desc>
    <defs>
        <circle id="path-1" cx="22.5" cy="22.5" r="22.5"></circle>
        <filter x="-55.6%" y="-108.9%" width="322.2%" height="322.2%" filterUnits="objectBoundingBox" id="filter-2">
            <feOffset dx="25" dy="1" in="SourceAlpha" result="shadowOffsetOuter1"></feOffset>
            <feGaussianBlur stdDeviation="12.5" in="shadowOffsetOuter1" result="shadowBlurOuter1"></feGaussianBlur>
            <feColorMatrix values="0 0 0 0 0   0 0 0 0 0   0 0 0 0 0  0 0 0 0.729562953 0" type="matrix" in="shadowBlurOuter1"></feColorMatrix>
        </filter>
    </defs>
    <g id="Page-1" stroke="none" stroke-width="1" fill="none" fill-rule="evenodd">
        <g id="Artboard" transform="translate(-532.000000, -682.000000)">
            <g id="1" transform="translate(-142.000000, -7.000000)">
                <g id="content" transform="translate(520.000000, 17.000000)">
                    <g id="smm-icons" transform="translate(37.000000, 659.000000)">
                        <g id="ic_inst" transform="translate(104.800000, 0.000000)">
                            <g id="Oval-3-Copy" opacity="0.185858243">
                                <use fill="black" fill-opacity="1" filter="url(#filter-2)" xlink:href="#path-1"></use>
                                <use fill="#26D5A3" fill-rule="evenodd" xlink:href="#path-1"></use>
                            </g>
                            <path d="M29.0625,29.609375 L15.9375,29.609375 C15.635625,29.609375 15.390625,29.364375 15.390625,29.0625 L15.390625,20.859375 L17.578125,20.859375 C17.2932031,21.2695312 17.1969531,22.0346094 17.1969531,22.5202344 C17.1969531,25.44875 19.5851563,27.8314844 22.5202344,27.8314844 C25.4558594,27.8314844 27.8440625,25.44875 27.8440625,22.5202344 C27.8440625,22.0346094 27.7751563,21.2810156 27.421875,20.859375 L29.609375,20.859375 L29.609375,29.0625 C29.609375,29.364375 29.364375,29.609375 29.0625,29.609375 M22.5202344,19.1629688 C24.3790625,19.1629688 25.8857031,20.6663281 25.8857031,22.5202344 C25.8857031,24.3746875 24.3790625,25.8780469 22.5202344,25.8780469 C20.6619531,25.8780469 19.1553125,24.3746875 19.1553125,22.5202344 C19.1553125,20.6663281 20.6619531,19.1629688 22.5202344,19.1629688 M26.875,15.9375 L28.515625,15.9375 C28.8175,15.9375 29.0625,16.1825 29.0625,16.484375 L29.0625,18.125 C29.0625,18.426875 28.8175,18.671875 28.515625,18.671875 L26.875,18.671875 C26.573125,18.671875 26.328125,18.426875 26.328125,18.125 L26.328125,16.484375 C26.328125,16.1825 26.573125,15.9375 26.875,15.9375 M29.1696875,13.75 L15.8303125,13.75 C14.6813281,13.75 13.75,14.6791406 13.75,15.8253906 L13.75,29.1746094 C13.75,30.3208594 14.6813281,31.25 15.8303125,31.25 L29.1696875,31.25 C30.3186719,31.25 31.25,30.3208594 31.25,29.1746094 L31.25,15.8253906 C31.25,14.6791406 30.3186719,13.75 29.1696875,13.75" fill="#FFFFFF"></path>
                        </g>
                    </g>
                </g>
            </g>
        </g>
    </g>
</svg>