<?xml version="1.0" encoding="UTF-8"?>
<svg width="21px" height="17px" viewBox="0 0 21 17" version="1.1" xmlns="http://www.w3.org/2000/svg" xmlns:xlink="http://www.w3.org/1999/xlink">
    <!-- Generator: sketchtool 50.2 (55047) - http://www.bohemiancoding.com/sketch -->
    <title>26E10951-692F-422F-AD91-13C2010112D7</title>
    <desc>Created with sketchtool.</desc>
    <defs>
        <circle id="path-1" cx="22.5" cy="22.5" r="22.5"></circle>
        <filter x="-55.6%" y="-108.9%" width="322.2%" height="322.2%" filterUnits="objectBoundingBox" id="filter-2">
            <feOffset dx="25" dy="1" in="SourceAlpha" result="shadowOffsetOuter1"></feOffset>
            <feGaussianBlur stdDeviation="12.5" in="shadowOffsetOuter1" result="shadowBlurOuter1"></feGaussianBlur>
            <feColorMatrix values="0 0 0 0 0   0 0 0 0 0   0 0 0 0 0  0 0 0 0.729562953 0" type="matrix" in="shadowBlurOuter1"></feColorMatrix>
        </filter>
    </defs>
    <g id="Page-1" stroke="none" stroke-width="1" fill="none" fill-rule="evenodd">
        <g id="Artboard" transform="translate(-637.000000, -684.000000)">
            <g id="1" transform="translate(-142.000000, -7.000000)">
                <g id="content" transform="translate(520.000000, 17.000000)">
                    <g id="smm-icons" transform="translate(37.000000, 659.000000)">
                        <g id="ic_twi" transform="translate(209.600000, 0.000000)">
                            <g id="Oval-3-Copy-2" opacity="0.185858243">
                                <use fill="black" fill-opacity="1" filter="url(#filter-2)" xlink:href="#path-1"></use>
                                <use fill="#26D5A3" fill-rule="evenodd" xlink:href="#path-1"></use>
                            </g>
                            <path d="M32.2079888,18.0254278 C31.5290809,18.3265237 30.7988368,18.5301384 30.0328302,18.6218516 C30.8149875,18.1529033 31.415449,17.4111229 31.6980869,16.5268698 C30.9666891,16.9606326 30.1556912,17.275572 29.293357,17.4457316 C28.6023361,16.7097193 27.6182946,16.25 26.5292732,16.25 C24.4377524,16.25 22.7425014,17.9452509 22.7425014,20.0367718 C22.7425014,20.3332532 22.7759565,20.6222361 22.8405595,20.8996828 C19.6928956,20.7416362 16.9028552,19.2338493 15.0351375,16.9427514 C14.7092386,17.5022592 14.5223515,18.1529033 14.5223515,18.8468083 C14.5223515,20.1602096 15.1908768,21.319602 16.206643,21.9985099 C15.5859931,21.9788983 15.0022592,21.8087387 14.4917804,21.5249471 C14.4912036,21.5410979 14.4912036,21.5566718 14.4912036,21.5728225 C14.4912036,23.407662 15.7965295,24.9379446 17.5292732,25.2857624 C17.2114497,25.3722842 16.8768987,25.4184291 16.5313882,25.4184291 C16.2873967,25.4184291 16.0503269,25.3947799 15.8190252,25.3509421 C16.3006633,26.8552682 17.6994328,27.9500577 19.3566141,27.9806287 C18.0605172,28.9963949 16.427562,29.6014709 14.6532878,29.6014709 C14.3475774,29.6014709 14.0464814,29.5835897 13.75,29.548981 C15.4256393,30.6230052 17.416218,31.25 19.5550375,31.25 C26.520621,31.25 30.3293117,25.4795712 30.3293117,20.4757258 C30.3293117,20.3113344 30.3258508,20.1480965 30.3183522,19.9854355 C31.0584022,19.4518843 31.7003942,18.7850894 32.2079888,18.0254278" fill="#FFFFFF"></path>
                        </g>
                    </g>
                </g>
            </g>
        </g>
    </g>
</svg>