<?xml version="1.0" encoding="UTF-8"?>
<svg width="65px" height="60px" viewBox="0 0 65 60" version="1.1" xmlns="http://www.w3.org/2000/svg" xmlns:xlink="http://www.w3.org/1999/xlink">
    <!-- Generator: sketchtool 50.2 (55047) - http://www.bohemiancoding.com/sketch -->
    <title>C1AA1BBC-4BA5-4AEF-8B40-F66002CAB5F4</title>
    <desc>Created with sketchtool.</desc>
    <defs>
        <linearGradient x1="50%" y1="0%" x2="50%" y2="100%" id="linearGradient-1">
            <stop stop-color="#26D3A8" offset="0%"></stop>
            <stop stop-color="#27C2DD" offset="100%"></stop>
        </linearGradient>
    </defs>
    <g id="Page-1" stroke="none" stroke-width="1" fill="none" fill-rule="evenodd">
        <g id="Artboard" transform="translate(-541.000000, -3134.000000)" fill="url(#linearGradient-1)" fill-rule="nonzero">
            <g id="5" transform="translate(204.000000, 2912.000000)">
                <g id="ico_settings" transform="translate(337.000000, 222.000000)">
                    <path d="M40.1166378,42.3404855 C40.1166378,42.1114775 40.0362085,41.8822287 39.8759519,41.6532207 C38.5924546,40.1171091 37.5614425,38.79941 36.7819527,37.7001234 C37.263204,36.7606126 37.6299519,35.8896116 37.8813537,35.088204 L43.2097942,34.2631972 C43.4166468,34.2398389 43.6000208,34.1199167 43.7602774,33.9027083 C43.9205339,33.684055 44,33.4610672 44,33.2319387 L44,26.8719697 C44,26.6202054 43.9205339,26.3964952 43.7602774,26.202043 C43.6000208,26.0075909 43.4050881,25.8868259 43.175961,25.8416745 L37.9504651,25.0509828 C37.6978593,24.2716091 37.308596,23.3314963 36.7815915,22.2319688 C37.1248608,21.727477 37.6411494,21.0397305 38.3287717,20.1693315 C39.0161532,19.2983305 39.4982473,18.6798162 39.7725256,18.3130663 C39.9332638,18.0839379 40.0132115,17.866007 40.0132115,17.6599961 C40.0132115,17.0411206 38.3629662,15.2077321 35.0638,12.1595898 C34.8347932,11.976576 34.5941074,11.8849487 34.3411404,11.8849487 C34.0667416,11.8849487 33.8376145,11.9642948 33.6533977,12.1253951 L29.5968958,15.1848554 C28.657631,14.7037218 27.7981934,14.3486511 27.0189443,14.1188002 L26.228257,8.85956266 C26.2057416,8.63043425 26.0909974,8.42960072 25.8847468,8.25790492 C25.6783759,8.08608871 25.4492487,8 25.1968837,8 L18.8034775,8 C18.276473,8 17.932722,8.27500226 17.772345,8.82488637 C17.4971035,9.87926236 17.2337818,11.6442615 16.9816577,14.1188002 C15.9963989,14.4395559 15.1140847,14.8063059 14.334956,15.2188093 L10.3818804,12.1252747 C10.1527533,11.9645356 9.91218781,11.8848283 9.65994325,11.8848283 C9.22396351,11.8848283 8.31889317,12.5607752 6.94400981,13.9131506 C5.56888564,15.2650443 4.62877799,16.2848644 4.12501129,16.9724905 C3.96439351,17.1561063 3.88456623,17.3852347 3.88456623,17.6602369 C3.88456623,17.8662478 3.96427311,18.0953762 4.12501129,18.3475018 C5.40814746,19.8833725 6.43927988,21.2010716 7.21864935,22.300599 C6.73751844,23.2407118 6.3710113,24.1111108 6.11912795,24.9131205 L0.790687365,25.7376456 C0.584195994,25.7605223 0.401062831,25.8806853 0.240445054,26.0980142 C0.0801884856,26.3161858 0,26.5392941 0,26.7683021 L0,33.1279099 C0,33.3801558 0.0801884856,33.6033844 0.240445054,33.7978366 C0.401062831,33.9931315 0.595634292,34.1018561 0.825243064,34.1246125 L6.05025736,34.9496192 C6.32525811,35.8201386 6.72668215,36.760131 7.25368666,37.7683924 C6.88693872,38.2730046 6.34861632,38.9723099 5.63811744,39.8655856 C4.92713695,40.7598245 4.45756474,41.3671413 4.22855798,41.6876561 C4.06818101,41.9167846 3.98787212,42.135197 3.98787212,42.3403651 C3.98787212,42.9600834 5.63811744,44.7928699 8.93812647,47.8412531 C9.16725363,48.0241464 9.40757828,48.1151717 9.66006365,48.1151717 C9.957941,48.1151717 10.1870682,48.0357052 10.3473247,47.8749661 L14.4035858,44.8159874 C15.3428507,45.2972414 16.2022882,45.651951 16.9817781,45.8811998 L17.7724654,51.140919 C17.7951012,51.369927 17.9099658,51.5710013 18.1159756,51.7424563 C18.3222261,51.9142725 18.5513533,52 18.8035979,52 L25.1970042,52 C25.7243699,52 26.06788,51.7252386 26.2283774,51.1751136 C26.5033781,50.0976201 26.7666998,48.3217846 27.0190647,45.8465235 C27.935453,45.5726049 28.8176467,45.2162096 29.6657664,44.7814315 L33.6189624,47.8749661 C33.8480896,48.0357052 34.088655,48.1151717 34.3408996,48.1151717 C34.7763977,48.1151717 35.6762907,47.4336862 37.0397358,46.0693909 C38.4026992,44.7067812 39.3484658,43.6803389 39.8758315,42.993074 C40.0362085,42.8331778 40.1166378,42.6157286 40.1166378,42.3404855 Z M28.2221328,36.2225281 C26.5037393,37.9406902 24.4295546,38.8001324 22.0005418,38.8001324 C19.570927,38.8001324 17.4967423,37.9405698 15.7783488,36.2225281 C14.0597145,34.5035232 13.2002769,32.4292067 13.2002769,30.0000602 C13.2002769,27.5710341 14.0597145,25.496838 15.7783488,23.7781943 C17.4967423,22.0594302 19.5710474,21.2002288 22.0005418,21.2002288 C24.4295546,21.2002288 26.5037393,22.0593098 28.2221328,23.7781943 C29.9411283,25.496838 30.8003251,27.5710341 30.8003251,30.0000602 C30.8003251,32.4292067 29.9412487,34.5035232 28.2221328,36.2225281 Z" id="Shape"></path>
                    <path d="M60.1492929,44.057079 C59.8675587,43.4015731 59.5417003,42.8136733 59.1730858,42.293142 C60.2800695,39.7371798 60.8329343,38.1766551 60.8329343,37.6115679 C60.8329343,37.5220997 60.7904062,37.4423744 60.7029558,37.3745307 C58.0981406,35.7916686 56.753091,35 56.6662106,35 L56.4711288,35.0682002 C55.58146,35.9957939 54.5826777,37.2618934 53.4763781,38.8675681 C53.0425463,38.822537 52.717486,38.7993679 52.5005131,38.7993679 C52.2828561,38.7993679 51.9577957,38.822537 51.5235079,38.8675681 C51.2207947,38.3923055 50.6558442,37.6286773 49.8312788,36.5776341 C49.0069413,35.5265909 48.5074361,35.0001188 48.3337894,35.0001188 C48.2904632,35.0001188 47.9650609,35.1809562 47.3571262,35.5437004 C46.7496477,35.9056129 46.1094465,36.2893874 45.4366366,36.6972815 C44.7632567,37.1051756 44.3843807,37.3303313 44.2973863,37.3758377 C44.2099358,37.4433249 44.1669517,37.5230502 44.1669517,37.6125184 C44.1669517,38.1785562 44.7202725,39.7378927 45.8269142,42.2940925 C45.4586417,42.8146238 45.1326693,43.4025236 44.8507071,44.0575543 C41.6168644,44.3962977 40,44.7472791 40,45.1090728 L40,49.8578965 C40,50.2198089 41.6168644,50.5703151 44.8507071,50.909415 C45.1105502,51.5202462 45.4364086,52.108146 45.8269142,52.6725203 C44.7202725,55.2284825 44.1669517,56.7890072 44.1669517,57.3540944 C44.1669517,57.4443943 44.2099358,57.5241196 44.2973863,57.5916069 C46.9443874,59.1972815 48.2904632,60 48.3337894,60 C48.5073221,60 49.0068273,59.4685376 49.8312788,58.4056129 C50.6557302,57.3424505 51.2199966,56.5743073 51.5235079,56.0994012 C51.9574537,56.1437194 52.2828561,56.1664132 52.5005131,56.1664132 C52.717372,56.1664132 53.0425463,56.1437194 53.4763781,56.0994012 C53.7795473,56.5743073 54.3441558,57.3424505 55.1686072,58.4056129 C55.9930587,59.4685376 56.4921078,60 56.6662106,60 C56.7095368,60 58.0557266,59.1969251 60.7029558,57.5916069 C60.7904062,57.5241196 60.8329343,57.4448695 60.8329343,57.3540944 C60.8329343,56.7888884 60.2793854,55.2283637 59.1730858,52.6725203 C59.5637054,52.108146 59.8889938,51.5202462 60.1492929,50.909415 C63.3830216,50.5703151 65,50.2198089 65,49.8578965 L65,45.1090728 C65,44.7471603 63.3830216,44.3961789 60.1492929,44.057079 Z M55.4452106,50.552968 C54.6325028,51.4011929 53.6500249,51.8260777 52.499715,51.8260777 C51.349063,51.8260777 50.3670411,51.4011929 49.5538772,50.552968 C48.7399153,49.7047431 48.3325352,48.6818592 48.3325352,47.4831282 C48.3325352,46.3075662 48.745388,45.2890785 49.5701816,44.4303978 C50.394519,43.5712419 51.3712962,43.1413669 52.4996009,43.1413669 C53.6276777,43.1413669 54.6050249,43.5707666 55.4298184,44.4303978 C56.2539279,45.2891973 56.6667807,46.307685 56.6667807,47.4831282 C56.6660966,48.6818592 56.2595147,49.7047431 55.4452106,50.552968 Z" id="Shape"></path>
                    <path d="M60.1492929,9.05706872 C59.8675587,8.4012157 59.5417003,7.81332427 59.1730858,7.29280035 C60.2800695,4.73770632 60.8329343,3.17720388 60.8329343,2.6118871 C60.8329343,2.52182612 60.7904062,2.44233959 60.7029558,2.37437801 C58.0981406,0.791419732 56.753091,0 56.6662106,0 L56.4711288,0.0677239524 C55.58146,0.995423287 54.5826777,2.26150475 53.4763781,3.86703768 C53.0425463,3.82212601 52.717486,3.79931373 52.5005131,3.79931373 C52.2828561,3.79931373 51.9577957,3.82212601 51.5235079,3.86703768 C51.2207947,3.39213832 50.6558442,2.62899631 49.8312788,1.57749284 C49.0069413,0.525751736 48.5074361,0.000118813952 48.3337894,0.000118813952 C48.2904632,0.000118813952 47.9650609,0.180834834 47.3571262,0.542979759 C46.7496477,0.905243497 46.1094465,1.28948782 45.4366366,1.69666323 C44.7632567,2.10395746 44.3843807,2.32994159 44.2973863,2.37485326 C44.2099358,2.44269603 44.1669517,2.52182612 44.1669517,2.61236235 C44.1669517,3.17767914 44.7202725,4.73830039 45.8269142,7.29351323 C45.4586417,7.81391834 45.1326693,8.40169096 44.8507071,9.05754397 C41.6168644,9.39652018 40,9.74690252 40,10.1088098 L40,14.8579223 C40,15.2195919 41.6168644,15.5703307 44.8507071,15.9091881 C45.1105502,16.5195354 45.4364086,17.1077833 45.8269142,17.6732189 C44.7202725,20.228907 44.1669517,21.7888153 44.1669517,22.3543697 C44.1669517,22.4443119 44.2099358,22.5237984 44.2973863,22.5916412 C46.9443874,24.1971741 48.2904632,25 48.3337894,25 C48.5073221,25 49.0068273,24.4687828 49.8312788,23.4057544 C50.6557302,22.342726 51.2199966,21.5742373 51.5235079,21.0991003 C51.9574537,21.144012 52.2828561,21.1669431 52.5005131,21.1669431 C52.717372,21.1669431 53.0425463,21.144012 53.4763781,21.0991003 C53.7795473,21.5742373 54.3441558,22.3426072 55.1686072,23.4057544 C55.9930587,24.4687828 56.4921078,25 56.6662106,25 C56.7095368,25 58.0557266,24.1971741 60.7029558,22.5916412 C60.7904062,22.5237984 60.8329343,22.4446683 60.8329343,22.3543697 C60.8329343,21.7888153 60.2793854,20.228907 59.1730858,17.6732189 C59.5637054,17.1077833 59.8889938,16.5198918 60.1492929,15.9091881 C63.3830216,15.5702119 65,15.2195919 65,14.8579223 L65,10.1088098 C65,9.74690252 63.3830216,9.39640136 60.1492929,9.05706872 Z M55.4452106,15.5531027 C54.6325028,16.4013155 53.6500249,16.8253625 52.499715,16.8253625 C51.349063,16.8253625 50.3670411,16.4013155 49.5538772,15.5531027 C48.7399153,14.7053652 48.3325352,13.6819018 48.3325352,12.4833066 C48.3325352,11.307405 48.745388,10.2895258 49.5701816,9.43014453 C50.394519,8.57076321 51.3712962,8.14101315 52.4996009,8.14101315 C53.6276777,8.14101315 54.6050249,8.57123847 55.4298184,9.43014453 C56.2539279,10.289407 56.6667807,11.307405 56.6667807,12.4833066 C56.6660966,13.6819018 56.2595147,14.7053652 55.4452106,15.5531027 Z" id="Shape"></path>
                </g>
            </g>
        </g>
    </g>
</svg>