<?xml version="1.0" encoding="UTF-8"?>
<svg width="54px" height="65px" viewBox="0 0 54 65" version="1.1" xmlns="http://www.w3.org/2000/svg" xmlns:xlink="http://www.w3.org/1999/xlink">
    <!-- Generator: sketchtool 50.2 (55047) - http://www.bohemiancoding.com/sketch -->
    <title>6B37C776-C71D-4DA0-A688-70BD185379A1</title>
    <desc>Created with sketchtool.</desc>
    <defs>
        <linearGradient x1="50%" y1="0%" x2="50%" y2="100%" id="linearGradient-1">
            <stop stop-color="#26D3A8" offset="0%"></stop>
            <stop stop-color="#27C2DD" offset="100%"></stop>
        </linearGradient>
    </defs>
    <g id="Page-1" stroke="none" stroke-width="1" fill="none" fill-rule="evenodd">
        <g id="Artboard" transform="translate(-934.000000, -3132.000000)" fill="url(#linearGradient-1)" fill-rule="nonzero">
            <g id="5" transform="translate(204.000000, 2912.000000)">
                <g id="ico_real" transform="translate(730.000000, 220.000000)">
                    <path d="M50.4142729,43.554998 C47.2229907,43.7568003 43.0241493,47.020016 38.9744755,48.8966695 C34.0105099,51.1961983 26.2845332,49.3474487 26.2836292,49.3474487 C27.4756138,48.7751873 32.3188892,47.594744 33.2943548,47.1570689 C38.479209,44.8220821 38.03924,39.959402 35.5699891,40.0002558 C32.3077393,40.0534428 30.3923673,40.8726769 23.8832365,41.7808644 C18.9491044,42.467208 13.1136385,42.216227 10.3145616,43.3098753 C6.36327807,44.8539943 0,55.2436526 0,55.2436526 L9.83918407,65 C9.83918407,65 15.930495,58.8617567 18.8941083,58.8617567 C25.6477835,58.8617567 25.9218601,58.7692575 32.1918708,58.4202274 C34.8583543,58.2742329 35.4149453,58.1620006 36.9421802,57.6359888 C45.0700053,54.8237065 53.7988703,47.3348214 53.9590371,46.4340339 C54.3302986,44.3474073 52.1001679,43.4507823 50.4142729,43.554998 Z" id="Shape"></path>
                    <path d="M30.4704381,9.66999633 C31.8339699,8.84569568 33.0511516,7.70042706 34.1254357,6.53731841 C35.0310045,5.55809925 36.2280725,4.30167355 36.098534,2.84992244 C36.007872,1.82800921 35.1630948,1.321322 34.2395137,1.20513312 C33.9424607,1.16731836 33.6437566,1.15755971 33.3438516,1.1619816 C33.142414,1.1648787 32.7348855,1.11029127 32.5771277,1.26612465 C32.2461515,1.59288682 31.9171267,1.91903908 31.5885522,2.24793595 C31.518004,2.0248594 31.4491069,1.80132541 31.3793092,1.5750468 C31.3381811,1.44178029 31.2221518,1.39039491 31.0926133,1.40930229 C30.1807402,1.55568199 29.2876299,1.73789421 28.3699028,1.56605055 C27.2430828,1.35486734 26.134125,1.03450928 25.0208142,0.769653527 C24.8927767,0.738242884 24.773145,0.808688112 24.7330676,0.935093076 C24.642856,1.22571776 24.5518938,1.51603749 24.4621325,1.80620473 C24.0687136,1.4106746 23.6733435,1.01971884 23.2763222,0.627543241 C23.1822078,0.535903454 23.0523691,0.336308642 22.9103721,0.312216984 C22.6463417,0.263423753 22.3812605,0.217222662 22.1148285,0.174681064 C21.6996448,0.108962681 21.2826598,0.0598644917 20.8635734,0.0267765818 C19.9431445,-0.0459558285 18.2803082,-0.0616611498 18.2289731,1.23212187 C18.1806401,3.30339454 19.9799196,4.94467685 21.2700512,6.31942614 C22.0685969,7.17086802 23.0267016,8.15557642 23.5636185,9.26897696 C17.8618222,11.1411123 13,18.1735892 13,25.7389797 C13,34.5772636 17.1290215,37 26.5008256,37 C35.8715789,37 40,34.5772636 40,25.7389797 C39.9998499,18.6351427 35.713671,12.0032277 30.4704381,9.66999633 Z M30.4662353,27.0393193 C30.1229507,27.5597296 29.6496773,27.9769117 29.1060058,28.2682988 C28.8193099,28.4186429 28.518054,28.5383388 28.2098934,28.6308935 C28.1662136,28.6458364 27.7640888,28.756841 27.7640888,28.756841 L27.7640888,29.8987551 C27.7640888,30.4299914 27.6641205,30.9927908 27.1956504,31.3084221 C26.6836505,31.6501272 25.9260828,31.5481188 25.5460231,31.0510378 C25.2675828,30.6881381 25.251672,30.2107268 25.251672,29.770063 C25.251672,29.4358293 25.251672,28.7559262 25.251672,28.7559262 C25.251672,28.7559262 24.9951467,28.6767896 24.9402091,28.6626091 C24.7602362,28.612901 24.5817642,28.5538917 24.4052436,28.4929001 C24.3006221,28.4553903 24.1982521,28.4160508 24.0946814,28.374729 C24.0205307,28.4251995 23.9426275,28.4714006 23.8624727,28.5118075 C23.7213763,28.5828627 23.5691723,28.6336381 23.4135159,28.6507157 C22.7976451,28.7098775 22.2563752,28.3376767 22.0963658,27.7341654 C21.9960973,27.3505286 22.0244667,26.9395981 22.0244667,26.5443729 C22.0244667,26.150825 21.9950466,25.7354727 22.0963658,25.3487863 C22.2665822,24.7109673 22.8464284,24.3485251 23.4857152,24.4409272 C23.7862206,24.4831639 24.0577561,24.6333556 24.2420821,24.8782366 C24.3393486,25.0061663 24.4095966,25.1543758 24.460031,25.3053298 C24.506863,25.448355 24.5410864,25.5945822 24.6336997,25.7141256 C24.8163745,25.9477232 25.1479511,26.0686389 25.4160343,26.1557044 C25.7722277,26.2726556 26.1467336,26.3301402 26.5207892,26.3301402 C27.1202989,26.3301402 27.8618056,26.1996183 28.2962024,25.7376074 C28.592655,25.4199939 28.4823296,24.8668007 28.07315,24.7230131 C27.6831835,24.5886793 27.3508564,24.5205212 26.9707967,24.4499235 C26.6207575,24.3825278 26.2704181,24.3186392 25.9217298,24.2518535 C24.9624243,24.0731483 23.9640921,23.8311643 23.2595107,23.0956064 C22.3587451,22.1578615 22.1828249,20.6739373 22.8522824,19.5475761 C23.1814573,18.9939254 23.6748445,18.5453326 24.2423823,18.2542505 C24.5368835,18.1019241 24.850748,17.9935117 25.1706166,17.9169673 C25.2636802,17.8934855 25.251672,17.9021768 25.251672,17.8172461 C25.251672,17.7455811 25.251672,17.6714763 25.251672,17.5970667 C25.251672,17.2483475 25.2317083,16.8894123 25.2624794,16.5420655 C25.3142647,15.925746 25.6432896,15.3711804 26.2842276,15.2650552 C26.9107557,15.1641142 27.4952551,15.5068866 27.6788305,16.1288478 C27.7932087,16.5140094 27.7640888,16.9304291 27.7640888,17.3302287 C27.7640888,17.4982604 27.7640888,17.6658346 27.7640888,17.8338663 C27.7640888,17.8492667 27.7640888,17.8680216 27.7640888,17.8838794 C27.7640888,17.8911984 27.9268,17.9189495 27.9452626,17.9224565 C28.0359245,17.9406015 28.1264364,17.9640832 28.2154472,17.9892423 C28.2885472,18.0087595 28.4096799,18.0782899 28.469721,18.0290392 C28.9857736,17.6037757 29.8147901,17.6199385 30.2527894,18.1485826 C30.5794126,18.5467049 30.571157,19.1808644 30.571157,19.6701691 C30.571157,20.1222689 30.6070315,20.6001376 30.4225554,21.0223515 C30.1610767,21.6173239 29.4650511,21.8686091 28.8760486,21.6476672 C28.5881519,21.5426093 28.3493387,21.3238022 28.2137961,21.0450708 C28.1731183,20.9634947 28.141897,20.878259 28.1178806,20.7910411 C28.1070732,20.7513966 28.0970163,20.7111422 28.0886106,20.6708877 C28.0590403,20.6515229 28.0284194,20.6329205 27.9965977,20.6167578 C27.8699111,20.5441778 27.7349689,20.4874557 27.5958238,20.4409496 C27.2704014,20.3363492 26.9283177,20.3032612 26.5889358,20.308293 C26.2758218,20.3125625 25.9565536,20.3393987 25.6573992,20.4325633 C25.2816925,20.5501245 24.6343001,21.0119829 25.1456996,21.3860135 C25.450708,21.6116822 25.8908087,21.6740461 26.2489535,21.7460161 C26.5677713,21.80777 26.8858387,21.8725735 27.2048066,21.93448 C28.152254,22.1241636 29.1834587,22.3204039 29.9411765,22.9736233 C29.4251238,22.5299099 30.6310479,23.5602094 29.9411765,22.9736233 C31.1067229,23.9658032 31.3041078,25.7647486 30.4662353,27.0393193 Z" id="Shape"></path>
                </g>
            </g>
        </g>
    </g>
</svg>