<?xml version="1.0" encoding="UTF-8"?>
<svg width="18px" height="24px" viewBox="0 0 18 24" version="1.1" xmlns="http://www.w3.org/2000/svg" xmlns:xlink="http://www.w3.org/1999/xlink">
    <!-- Generator: sketchtool 50.2 (55047) - http://www.bohemiancoding.com/sketch -->
    <title>3A19B15D-FC45-4DD9-97A0-9D88901443AD</title>
    <desc>Created with sketchtool.</desc>
    <defs>
        <circle id="path-1" cx="22.5" cy="22.5" r="22.5"></circle>
        <filter x="-55.6%" y="-108.9%" width="322.2%" height="322.2%" filterUnits="objectBoundingBox" id="filter-2">
            <feOffset dx="25" dy="1" in="SourceAlpha" result="shadowOffsetOuter1"></feOffset>
            <feGaussianBlur stdDeviation="12.5" in="shadowOffsetOuter1" result="shadowBlurOuter1"></feGaussianBlur>
            <feColorMatrix values="0 0 0 0 0   0 0 0 0 0   0 0 0 0 0  0 0 0 0.729562953 0" type="matrix" in="shadowBlurOuter1"></feColorMatrix>
        </filter>
    </defs>
    <g id="Page-1" stroke="none" stroke-width="1" fill="none" fill-rule="evenodd">
        <g id="Artboard" transform="translate(-1372.000000, -679.000000)">
            <g id="1" transform="translate(-142.000000, -7.000000)">
                <g id="content" transform="translate(520.000000, 17.000000)">
                    <g id="smm-icons" transform="translate(37.000000, 659.000000)">
                        <g id="ic_b" transform="translate(943.200000, 0.000000)">
                            <g id="Oval-3-Copy-9" opacity="0.185858243">
                                <use fill="black" fill-opacity="1" filter="url(#filter-2)" xlink:href="#path-1"></use>
                                <use fill="#26D5A3" fill-rule="evenodd" xlink:href="#path-1"></use>
                            </g>
                            <path d="M29.8416667,23.7733333 C29.5288453,23.1999785 29.0640476,22.7239357 28.4983333,22.3975 C27.9659768,22.1101364 27.3976163,21.8951796 26.8083333,21.7583333 C27.4152197,21.5615483 27.9781325,21.248819 28.4658333,20.8375 C28.8733487,20.4837525 29.2018563,20.048203 29.43,19.5591667 C29.9738251,18.4000305 29.8625081,17.0394892 29.1375,15.9841667 C28.6869148,15.3436926 28.0576825,14.8501032 27.3283333,14.565 C26.9785321,14.427148 26.6155248,14.325506 26.245,14.2616667 L26.245,11.38 L23.6016667,11.38 L23.6016667,14.0666667 L21.89,14.0666667 L21.89,11.38 L19.225,11.38 L19.225,14.0666667 L15.1625,14.0666667 L15.1625,16.32 L15.78,16.32 C16.0669665,16.2982577 16.3552383,16.3389114 16.625,16.4391667 C16.7618315,16.5059172 16.8724161,16.6165018 16.9391667,16.7533333 C17.0189935,17.0533348 17.0482833,17.3645392 17.0258333,17.6741667 L17.0258333,26.7741667 C17.04768,27.0802081 17.0183902,27.387751 16.9391667,27.6841667 C16.8751379,27.8255432 16.7641255,27.9403836 16.625,28.0091667 C16.3532781,28.1008421 16.0660604,28.1376649 15.78,28.1175 L15.1625,28.1175 L15.1625,30.3708333 L19.225,30.3708333 L19.225,33.0575 L21.89,33.0575 L21.89,30.3708333 L23.6016667,30.3708333 L23.6016667,33.0575 L26.2666667,33.0575 L26.2666667,30.1433333 C26.6708564,30.0674575 27.0664385,29.9513233 27.4475,29.7966667 C28.3193856,29.4680815 29.0736646,28.8872867 29.6141667,28.1283333 C30.1114625,27.4294007 30.3767184,26.59195 30.3725,25.7341667 C30.3708499,25.0452766 30.1877628,24.3689756 29.8416667,23.7733333 Z M20.915,16.6666667 L22.6375,16.6666667 C23.3437204,16.6333782 24.0511264,16.6990138 24.7391667,16.8616667 C25.1042672,16.9694063 25.4215441,17.1987631 25.6383333,17.5116667 C25.8493009,17.8331126 25.9587601,18.210558 25.9525,18.595 C25.9569166,18.9807676 25.8435364,19.3587016 25.6275,19.6783333 C25.3858803,20.0109957 25.0442587,20.2577224 24.6525,20.3825 C24.0017654,20.5699839 23.3248886,20.6504774 22.6483333,20.6208333 L20.915,20.6208333 L20.915,16.6666667 Z M25.8333333,26.7741667 C25.566625,27.1497578 25.1871503,27.4305691 24.75,27.5758333 C24.2092516,27.7175708 23.6513786,27.7832029 23.0925,27.7708333 L21.8575,27.7708333 C21.620802,27.7878759 21.382912,27.7659168 21.1533333,27.7058333 C21.062291,27.6597574 20.9952759,27.5769741 20.9691667,27.4783333 C20.9421314,27.1828393 20.9421314,26.885494 20.9691667,26.59 L20.9691667,23.0691667 L23.0058333,23.0691667 C23.6804069,23.0377118 24.3552308,23.1257323 24.9991667,23.3291667 C25.3973753,23.4703068 25.7393487,23.7362862 25.9741667,24.0875 C26.1911091,24.4650403 26.289264,24.899187 26.2558333,25.3333333 C26.2770964,25.8469825 26.1286158,26.3533392 25.8333333,26.7741667 Z" id="Shape" fill="#FFFFFF"></path>
                        </g>
                    </g>
                </g>
            </g>
        </g>
    </g>
</svg>